# xmcd
#
# Track frame offsets:
#   150
#   16122
#   26010
#   37850
#   48615
#   61837
#   73682
#   86925
#   102975
#   113372
#   126407
#   141947
#   152622
#   165062
#   176482
#   192522
#
# Disc length: 2797 seconds
#
# Revision: 0
# Processed by: cddbd v1.4PL0 Copyright (c) Steve Scherf et al.
# Submitted via: uFREEDB 1.6.0
#
DISCID=cd0aeb10
DTITLE=Quinn, Freddy - Die Ganz Großen Hits, Vol. 2
DYEAR=1996
DGENRE=Other
TTITLE0=Heimweh
TTITLE1=Sie Hiess Mary Ann
TTITLE2=Bel Sante
TTITLE3=Einmal In Tampico
TTITLE4=Der Legionär
TTITLE5=Ich Bin Bald Wieder Hier
TTITLE6=Melodie Der Nacht
TTITLE7=Alo-Ahe
TTITLE8=Keine Bange, Lieselotte
TTITLE9=Lass Mich Noch Einmal In Die Ferne
TTITLE10=Gib Mir Dein Wort
TTITLE11=So Ein Tag, So Wunderschön Wie Heute
TTITLE12=5.000 Meilen Von Zu Haus
TTITLE13=Hundert Mann Und Ein Befehl
TTITLE14=Eine Handvoll Reis
TTITLE15=St. Helena
EXTD=
EXTT0=
EXTT1=
EXTT2=
EXTT3=
EXTT4=
EXTT5=
EXTT6=
EXTT7=
EXTT8=
EXTT9=
EXTT10=
EXTT11=
EXTT12=
EXTT13=
EXTT14=
EXTT15=
PLAYORDER=
